<?xml version="1.0" encoding="utf-8"?>

<!-- The icon can be used freely in both personal and commercial projects with no attribution required, but always appreciated. 
You may NOT sub-license, resell, rent, redistribute or otherwise transfer the icon without express written permission from iconmonstr.com -->

<!DOCTYPE svg PUBLIC "-//W3C//DTD SVG 1.1//EN" "http://www.w3.org/Graphics/SVG/1.1/DTD/svg11.dtd">
<svg version="1.1" xmlns="http://www.w3.org/2000/svg" xmlns:xlink="http://www.w3.org/1999/xlink" x="0px" y="0px"
	 width="512px" height="512px" viewBox="0 0 512 512" enable-background="new 0 0 512 512" xml:space="preserve">
<path id="monitoring-icon" d="M125.721,306.704l18.499-112.712l18.89,81.125c1.877,8.314,13.422,9.253,16.554,1.251l17.118-43.745
	c0,0,8.276,19.203,9.843,22.482s3.208,5.396,8.542,5.396h21v-17.391h-15.354l-16.424-36.787c-3.06-7.127-13.231-6.975-16.063,0.261
	l-14.511,37.089l-22.358-99.043c-2.117-9.367-15.518-8.842-17.038,0.518l-18.547,114.415l-18.964-70.447
	c-2.116-8.415-13.991-8.892-16.682-0.552l-14.11,54.569H50v17.367h22.95c3.134,0,6.533-2.538,7.422-5.543l7.99-28.6l20.371,81.066
	C111.037,316.587,124.212,315.98,125.721,306.704z M462,347.865l-53.508-53.507c7.824-12.331,12.361-26.944,12.361-42.597
	c0-43.967-35.769-79.736-79.735-79.736c-43.965,0-79.734,35.77-79.734,79.736c0,43.964,35.77,79.734,79.734,79.734
	c14.878,0,28.812-4.101,40.745-11.222l53.863,53.864L462,347.865z M291.109,251.762c0-27.577,22.434-50.012,50.009-50.012
	c27.576,0,50.013,22.435,50.013,50.012c0,27.574-22.437,50.01-50.013,50.01C313.543,301.771,291.109,279.336,291.109,251.762z"/>
</svg>
